HIERARCHY
ROOT hip
{
	OFFSET 0.000000 0.000000 0.000000 
	CHANNELS 6 Xposition Yposition Zposition Xrotation Zrotation Yrotation
	JOINT abdomen
	{
		OFFSET 0.000000 3.402643 0.000000 
		CHANNELS 3 Xrotation Zrotation Yrotation
		JOINT chest
		{
			OFFSET 0.000000 8.438565 -0.680529 
			CHANNELS 3 Xrotation Zrotation Yrotation
			JOINT neck
			{
				OFFSET 0.000000 10.207942 -0.272212 
				CHANNELS 3 Xrotation Zrotation Yrotation
				JOINT head
				{
					OFFSET 0.000000 3.130431 0.000000 
					CHANNELS 3 Xrotation Zrotation Yrotation
					End Site
					{
						OFFSET 0.000000 3.130435 0.000000 
					}
				}
			}
			JOINT lCollar
			{
				OFFSET 3.470700 6.669187 -0.816635 
				CHANNELS 3 Yrotation Zrotation Xrotation
				JOINT lShldr
				{
					OFFSET 3.198488 0.000000 0.000000 
					CHANNELS 3 Zrotation Yrotation Xrotation
					JOINT lForeArm
					{
						OFFSET 10.139888 0.000000 0.000000 
						CHANNELS 3 Yrotation Zrotation Xrotation
						JOINT lHand
						{
							OFFSET 8.370511 0.000000 0.000000 
							CHANNELS 3 Zrotation Yrotation Xrotation
							End Site
							{
								OFFSET 4.083176 0.000000 0.000000 
							}
						}
					}
				}
			}
			JOINT rCollar
			{
				OFFSET -3.470700 6.669187 -0.816635 
				CHANNELS 3 Yrotation Zrotation Xrotation
				JOINT rShldr
				{
					OFFSET -3.198488 0.000000 0.000000 
					CHANNELS 3 Zrotation Yrotation Xrotation
					JOINT rForeArm
					{
						OFFSET -10.139888 0.000000 0.000000 
						CHANNELS 3 Yrotation Zrotation Xrotation
						JOINT rHand
						{
							OFFSET -8.370511 0.000000 0.000000 
							CHANNELS 3 Zrotation Yrotation Xrotation
							End Site
							{
								OFFSET -4.083176 0.000000 0.000000 
							}
						}
					}
				}
			}
		}
	}
	JOINT lThigh
	{
		OFFSET 5.308129 -1.633274 1.361059 
		CHANNELS 3 Xrotation Zrotation Yrotation
		JOINT lShin
		{
			OFFSET -2.041588 -20.007561 0.000000 
			CHANNELS 3 Xrotation Zrotation Yrotation
			JOINT lFoot
			{
				OFFSET 0.000000 -19.190928 -1.224953 
				CHANNELS 3 Xrotation Yrotation Zrotation
				End Site
				{
					OFFSET 0.000000 -2.449906 4.627600 
				}
			}
		}
	}
	JOINT rThigh
	{
		OFFSET -5.308129 -1.633274 1.361059 
		CHANNELS 3 Xrotation Zrotation Yrotation
		JOINT rShin
		{
			OFFSET 2.041588 -20.007561 0.000000 
			CHANNELS 3 Xrotation Zrotation Yrotation
			JOINT rFoot
			{
				OFFSET 0.000000 -19.190928 -1.224953 
				CHANNELS 3 Xrotation Yrotation Zrotation
				End Site
				{
					OFFSET 0.000000 -2.449906 4.627600 
				}
			}
		}
	}
}
MOTION
Frames: 8
Frame Time: 0.011111
-22.651556 57.200928 11.884534 -0.821300 -3.424422 -85.444740 25.925310 -3.324667 1.857187 -29.045038 -1.578674 0.895535 -14.007479 -6.737522 -0.949688 -27.038614 8.482023 -8.067099 2.424333 -4.683778 1.783845 92.960770 -61.506340 -79.175728 -53.783051 8.467779 9.702454 8.524705 12.647240 -49.319717 -2.738486 -1.140572 2.095526 -66.291039 43.111046 -61.798519 58.040939 -9.091755 11.548049 -8.534408 -12.637552 58.499859 -1.627707 4.835956 -6.266043 27.058136 -5.488849 -4.472451 2.595824 18.798157 -4.194918 3.660541 -5.553455 16.120369 27.563570 5.445841 4.527746 -4.013296 -22.411053 2.498623 
-22.548107 57.648716 11.887241 -1.378297 -2.426010 -85.470825 25.336681 -4.210528 1.628368 -29.190958 -1.377262 0.904538 -14.412792 -6.756125 -0.987628 -27.294802 8.534702 -8.308825 2.424333 -4.683778 1.783845 94.988693 -60.682537 -81.274307 -51.502251 8.030462 8.762228 8.524705 12.647240 -49.817760 -2.738486 -1.140572 2.095526 -66.854576 42.285408 -61.260548 57.456837 -9.023367 11.286247 -8.534408 -12.637552 59.281109 -2.486460 4.438287 -5.721827 26.618338 -5.494077 -4.434222 5.647048 19.466923 -5.091892 1.962448 -6.372401 15.637118 27.853561 5.435375 4.570971 -4.260865 -24.226603 2.451108 
-22.414280 58.062519 11.885437 -2.093326 -1.499020 -85.457092 24.944994 -5.234295 1.239153 -29.395433 -1.080445 0.887000 -14.648879 -7.012206 -0.997236 -27.792204 8.818607 -8.663769 2.424333 -4.683778 1.783845 96.954262 -59.920818 -84.141144 -49.254761 7.520958 7.849619 8.524705 12.647240 -51.009163 -2.738486 -1.140572 2.095526 -67.483261 41.662575 -61.249893 56.703945 -8.930532 10.967892 -8.534408 -12.637552 59.456894 -3.205523 3.830549 -5.616645 26.082485 -5.537735 -4.346867 9.097512 19.646982 -5.978964 0.196161 -7.317635 15.139637 28.416765 5.395330 4.640633 -3.836534 -25.219763 2.641738 
-22.257902 58.438431 11.867693 -2.876854 -0.629435 -85.511932 24.693798 -6.410510 0.797999 -29.600155 -0.766302 0.854249 -15.044517 -7.292214 -1.026131 -28.071028 9.281522 -9.087360 2.424333 -4.683778 1.783845 98.963577 -59.169716 -87.897087 -47.230442 7.013076 7.062516 8.524705 12.647240 -53.255260 -2.738486 -1.140572 2.095526 -68.044487 41.160034 -61.601490 56.098755 -8.843308 10.701866 -8.534408 -12.637552 59.261578 -3.816497 3.133534 -6.011186 25.448261 -5.567001 -4.257128 11.701625 20.485941 -6.860707 -1.647185 -8.321558 14.906728 29.195745 5.365781 4.742182 -2.247004 -25.622147 3.270937 
-22.099115 58.778858 11.831906 -3.775937 0.091166 -85.754913 24.656469 -7.795305 0.333059 -29.785574 -0.399349 0.839036 -15.610874 -7.395388 -1.032076 -28.014795 9.669182 -9.381729 2.424333 -4.683778 1.783845 100.928345 -58.499771 -92.176514 -45.465004 6.519358 6.375517 8.524705 12.647240 -55.374401 -2.738486 -1.140572 2.095526 -68.579765 40.824936 -62.376537 55.633186 -8.776683 10.501649 -8.534408 -12.637552 59.183453 -4.147146 2.322715 -6.405867 24.804857 -5.582540 -4.193641 13.900609 21.418783 -7.719693 -3.432869 -9.464708 14.900338 30.027273 5.307276 4.860150 -0.192032 -25.882866 4.081015 
-21.949352 59.067562 11.786797 -4.869154 0.602144 -86.174728 24.763405 -9.392678 -0.223316 -29.961670 -0.013451 0.817842 -15.918104 -7.214046 -0.973845 -28.118795 9.665069 -9.301230 2.424333 -4.683778 1.783845 102.685417 -58.002300 -96.418098 -44.026844 6.088140 5.839616 8.524705 12.647240 -57.112682 -2.738486 -1.140572 2.095526 -69.061150 40.677952 -63.090313 55.348103 -8.735737 10.380097 -8.534408 -12.637552 59.359234 -4.199633 1.277811 -6.709815 24.137943 -5.615387 -4.090950 16.320875 21.401827 -8.349887 -5.024642 -10.775259 15.024379 30.866543 5.258133 4.961303 1.467133 -26.411688 4.763080 
-21.813725 59.337914 11.716726 -5.867306 0.950491 -86.697975 24.919102 -10.938040 -0.756210 -30.138605 0.500669 0.789629 -15.999901 -7.086499 -0.865982 -28.251240 9.577152 -9.063286 2.424333 -4.683778 1.783845 103.965118 -57.731171 -99.934929 -43.177353 5.818695 5.521006 8.524705 12.647240 -58.333389 -2.738486 -1.140572 2.095526 -69.524055 40.678497 -63.445950 55.315624 -8.727301 10.360595 -8.534408 -12.637552 59.661968 -4.135930 0.371625 -7.438750 23.478035 -5.652721 -4.010098 17.567516 21.490400 -8.713805 -6.335137 -11.852636 15.295195 31.674923 5.209029 5.059350 2.476764 -27.099140 5.249236 
-21.706064 59.573986 11.632222 -6.671403 1.135670 -87.270195 25.032938 -12.237024 -1.158147 -30.199015 0.976542 0.777323 -16.352493 -7.314330 -0.746828 -27.788946 9.945389 -9.000883 2.424333 -4.683778 1.783845 104.841034 -57.693752 -102.341476 -42.860649 5.716203 5.405335 8.524705 12.647240 -58.782604 -2.738486 -1.140572 2.095526 -69.958122 40.817196 -63.714066 55.357639 -8.733197 10.381907 -8.534408 -12.637552 59.857285 -3.901074 -0.369495 -8.001703 22.788673 -5.682744 -3.904631 18.748335 20.842339 -8.764397 -7.395515 -12.571258 15.815912 32.480469 5.170338 5.169514 2.907248 -27.449812 5.456131 
